<?xml version="1.0" encoding="UTF-8"?>
<!-- Generator: Adobe Illustrator 28.0.0, SVG Export Plug-In . SVG Version: 6.00 Build 0)  -->
<svg xmlns="http://www.w3.org/2000/svg" xmlns:xlink="http://www.w3.org/1999/xlink" version="1.1" id="Calque_1" x="0px" y="0px" viewBox="0 0 1000 1000" style="enable-background:new 0 0 1000 1000;" xml:space="preserve">
<style type="text/css">
	.st0{fill:#CE5858;}
	.st1{fill:#C0AA3B;}
	.st2{fill:#DC9448;}
	.st3{fill:#4ABBBF;}
	.st4{fill:#020203;}
</style>
<path d="M167.51,540.03V345.27h149.13v45.35h-95.71v25.88h57.59v44.79h-57.59v33.39h97.66v45.35H167.51z"></path>
<path d="M493.88,540.03l-76.79-109.9v109.9H367V345.27h47.58l73.17,103.5v-103.5h50.08v194.76H493.88z"></path>
<path d="M665.83,543.09c-31.44,0-61.77-10.29-82.08-23.65l26.15-42.29c14.19,9.74,38.95,19.47,57.04,19.47  c19.2,0,25.32-3.34,25.32-12.52c0-7.23-6.96-11.69-33.11-17.81c-47.02-10.85-69.56-23.65-69.56-62.6  c0-36.73,29.77-61.49,76.79-61.49c33.11,0,57.04,8.07,77.63,22.54l-26.15,42.29c-17.25-11.69-34.5-18.36-54.25-18.36  c-16.14,0-20.03,5.01-20.03,11.96c0,7.23,6.96,10.57,32,16.42c48.97,11.69,70.67,26.71,70.67,63.16  C746.23,524.73,712.57,543.09,665.83,543.09z"></path>
<path d="M795.48,540.03V345.27h55.09v194.76H795.48z"></path>
<path d="M244.79,754.88c-50.39,0-77.28-37.31-77.28-87.45c0-54.51,31.98-87.45,77.52-87.45c41.67,0,58.14,17.93,69.77,49.9  l-42.64,16.72c-6.06-15.75-11.87-25.68-27.37-25.68c-19.62,0-28.1,19.62-28.1,46.51c0,25.92,8.24,46.51,28.58,46.51  c14.78,0,21.08-7.99,30.28-23.98l39.73,21.08C303.9,733.32,285,754.88,244.79,754.88z"></path>
<path d="M451.01,752.21l-9.21-29.8h-50.87l-9.21,29.8h-50.39l61.53-169.57h47.48l61.53,169.57H451.01z M427.27,673.97  c-6.06-21.8-8.72-31.01-10.9-42.39c-2.18,11.39-4.84,20.83-10.9,42.39l-3.15,11.14h28.1L427.27,673.97z"></path>
<path d="M529.81,752.21V582.64h129.85v39.49h-83.33v22.53h50.15v39h-50.15v29.07h85.03v39.49H529.81z"></path>
<path d="M812.29,752.21l-40.46-55.96c-7.51-10.42-22.04-32.22-26.4-39.73c1.21,7.51,1.45,30.04,1.45,43.85v51.84h-45.06V582.64  h41.43l37.31,50.15c7.75,10.42,22.77,32.95,26.41,39.97c-1.21-7.51-1.45-30.04-1.45-43.85v-46.27h45.06v169.57H812.29z"></path>
<rect x="723.83" y="205" class="st0" width="55.98" height="28.57"></rect>
<rect x="167.51" y="205" class="st0" width="55.98" height="28.57"></rect>
<rect x="306.92" y="242.25" class="st0" width="55.98" height="28.57"></rect>
<rect x="654.18" y="242.3" class="st0" width="55.89" height="28.52"></rect>
<rect x="376.44" y="167.37" class="st1" width="55.89" height="28.52"></rect>
<rect x="514.04" y="279.76" class="st2" width="58.32" height="28.52"></rect>
<rect x="444.46" y="167.48" class="st0" width="58.32" height="28.52"></rect>
<rect x="584.75" y="129.96" class="st0" width="55.98" height="28.57"></rect>
<rect x="792.16" y="280.05" class="st0" width="58.41" height="28.57"></rect>
<rect x="237.05" y="242.53" class="st0" width="55.98" height="28.57"></rect>
<rect x="584.75" y="242.53" class="st2" width="55.98" height="28.57"></rect>
<rect x="723.83" y="129.96" class="st2" width="55.98" height="28.57"></rect>
<rect x="792.16" y="242.53" class="st2" width="58.41" height="28.57"></rect>
<rect x="306.59" y="280.05" class="st2" width="55.98" height="28.57"></rect>
<rect x="444.46" y="205" class="st3" width="58.41" height="28.57"></rect>
<rect x="237.58" y="204.83" class="st2" width="55.89" height="28.52"></rect>
<rect x="654.29" y="167.48" class="st2" width="55.98" height="28.57"></rect>
<rect x="306.59" y="167.48" class="st2" width="55.98" height="28.57"></rect>
<rect x="167.51" y="280.05" class="st0" width="55.98" height="28.57"></rect>
<rect x="723.61" y="167.37" class="st3" width="55.89" height="28.52"></rect>
<rect x="723.61" y="242.3" class="st1" width="55.89" height="28.52"></rect>
<rect x="306.59" y="205" class="st3" width="55.89" height="28.52"></rect>
<rect x="514.09" y="204.83" class="st0" width="58.32" height="28.52"></rect>
<rect x="584.75" y="167.48" class="st3" width="55.98" height="28.57"></rect>
<rect x="792.16" y="167.48" class="st0" width="58.41" height="28.57"></rect>
<rect x="376.13" y="242.53" class="st2" width="55.98" height="28.57"></rect>
<rect x="514" y="167.48" class="st1" width="58.41" height="28.57"></rect>
<rect x="584.75" y="205" class="st1" width="55.98" height="28.57"></rect>
<rect x="792.16" y="205" class="st1" width="58.41" height="28.57"></rect>
<rect x="376.13" y="205" class="st0" width="55.98" height="28.57"></rect>
<rect x="654.34" y="279.76" class="st1" width="55.89" height="28.52"></rect>
<rect x="168.14" y="242.3" class="st1" width="55.89" height="28.52"></rect>
<rect x="654.29" y="129.96" class="st1" width="55.98" height="28.57"></rect>
<rect x="376.13" y="280.05" class="st1" width="55.98" height="28.57"></rect>
<rect x="444.57" y="242.25" class="st1" width="58.41" height="28.57"></rect>
<rect x="584.75" y="280.05" class="st3" width="55.98" height="28.57"></rect>
<rect x="654.29" y="205" class="st3" width="55.98" height="28.57"></rect>
<rect x="723.83" y="280.05" class="st3" width="55.98" height="28.57"></rect>
<rect x="237.05" y="280.05" class="st3" width="55.98" height="28.57"></rect>
<rect x="514" y="242.53" class="st3" width="58.41" height="28.57"></rect>
<rect x="444.46" y="280.05" class="st0" width="58.41" height="28.57"></rect>
<g>
	<rect x="514.09" y="129.9" class="st2" width="58.32" height="28.52"></rect>
	<path class="st1" d="M444.46,158.53h58.41v-28.12c-19.11,1.39-38.62,3.1-58.41,5.16V158.53z"></path>
	<path class="st1" d="M237.05,196.05h55.98v-28.57h-41.91c-4.69,1.1-9.38,2.22-14.06,3.37V196.05z"></path>
	<path class="st0" d="M306.59,158.53h55.98v-12.45c-18.56,2.85-37.25,6.05-55.98,9.63V158.53z"></path>
	<path class="st3" d="M376.44,158.42h55.89v-21.55c-18.43,2.05-37.08,4.41-55.89,7.13V158.42z"></path>
	<path class="st3" d="M792.16,129.96v28.57h58.41V134.5c-7.43-0.82-25.54-2.68-52.05-4.54H792.16z"></path>
	<path class="st3" d="M167.51,196.05h55.98v-21.79c-18.76,4.83-37.44,10.09-55.98,15.84V196.05z"></path>
	<path class="st4" d="M167.51,175.86v7.34v6.91c18.54-5.75,37.22-11.02,55.98-15.84c4.52-1.16,9.04-2.3,13.56-3.41   c4.69-1.15,9.37-2.27,14.06-3.37c18.49-4.33,37-8.24,55.48-11.78c18.73-3.59,37.42-6.79,55.98-9.63c4.63-0.71,9.26-1.4,13.87-2.07   c18.81-2.72,37.46-5.09,55.89-7.13c4.05-0.45,8.09-0.89,12.12-1.3c19.8-2.06,39.3-3.77,58.41-5.16   c125.23-9.11,233.52-4.8,295.65-0.45c26.51,1.86,44.62,3.72,52.05,4.54v-4.54c0-10.53,0-13.62,0-26.79   C818.17,99.67,465.62,65.51,167.51,175.86z"></path>
</g>
<g>
	<path d="M185.66,832.71h-18.15v-27.46h18.15v4.4h-12.92v6.56h12.75v4.3h-12.75v7.56h12.92V832.71z M182.53,796.14l-4.95,6.63h-3.64   l3.09-6.63H182.53z"></path>
	<path d="M218.35,827.76c-1.37,1.67-3.04,3-5,3.99c-1.96,0.98-4.12,1.48-6.48,1.48c-2.04,0-3.95-0.37-5.74-1.12   c-1.79-0.74-3.34-1.76-4.66-3.04s-2.37-2.79-3.13-4.52c-0.76-1.73-1.14-3.59-1.14-5.59c0-1.99,0.38-3.85,1.14-5.58   c0.76-1.73,1.81-3.24,3.13-4.54c1.32-1.29,2.88-2.31,4.66-3.04c1.79-0.73,3.7-1.1,5.74-1.1c2.36,0,4.52,0.49,6.48,1.48   c1.96,0.99,3.59,2.27,4.9,3.85l-3.68,3.78c-0.85-1.21-1.94-2.19-3.28-2.94c-1.34-0.74-2.81-1.12-4.42-1.12   c-1.28,0-2.49,0.25-3.63,0.74c-1.13,0.49-2.13,1.16-2.97,1.99c-0.85,0.84-1.52,1.81-2.01,2.92s-0.74,2.3-0.74,3.56   c0,1.24,0.25,2.41,0.74,3.52c0.49,1.11,1.16,2.09,2.01,2.92c0.85,0.84,1.84,1.5,2.97,1.99c1.13,0.49,2.34,0.74,3.63,0.74   c1.7,0,3.2-0.38,4.5-1.15c1.31-0.77,2.39-1.78,3.26-3.04L218.35,827.76z"></path>
	<path d="M251.55,818.96c0,1.97-0.38,3.83-1.15,5.57c-0.77,1.74-1.81,3.25-3.14,4.54c-1.33,1.28-2.87,2.3-4.63,3.04   c-1.76,0.74-3.64,1.12-5.63,1.12c-1.99,0-3.87-0.37-5.65-1.12c-1.77-0.74-3.32-1.76-4.65-3.04c-1.33-1.28-2.37-2.79-3.14-4.52   c-0.77-1.73-1.15-3.59-1.15-5.59c0-1.99,0.38-3.86,1.15-5.6s1.81-3.25,3.14-4.54c1.33-1.28,2.88-2.29,4.65-3.02   c1.77-0.73,3.66-1.1,5.65-1.1c1.99,0,3.87,0.37,5.63,1.1c1.76,0.73,3.31,1.75,4.63,3.04c1.33,1.29,2.37,2.81,3.14,4.54   C251.17,815.11,251.55,816.97,251.55,818.96z M246.22,818.96c0-1.26-0.24-2.45-0.72-3.56c-0.48-1.11-1.14-2.08-1.98-2.92   c-0.84-0.84-1.82-1.5-2.94-1.99c-1.12-0.49-2.32-0.74-3.58-0.74c-1.29,0-2.49,0.25-3.62,0.74c-1.12,0.49-2.11,1.16-2.94,1.99   c-0.84,0.84-1.5,1.81-1.98,2.92c-0.48,1.11-0.72,2.3-0.72,3.56c0,1.24,0.24,2.42,0.72,3.54c0.48,1.12,1.14,2.1,1.98,2.94   c0.84,0.84,1.82,1.5,2.94,1.99c1.12,0.49,2.33,0.74,3.62,0.74c1.26,0,2.46-0.25,3.58-0.74c1.12-0.49,2.11-1.16,2.94-1.99   c0.84-0.84,1.5-1.82,1.98-2.94C245.98,821.38,246.22,820.2,246.22,818.96z"></path>
	<path d="M277.74,832.71h-18.59v-27.46h5.43v22.31h13.16V832.71z"></path>
	<path d="M302.42,832.71h-18.15v-27.46h18.15v4.4H289.5v6.56h12.75v4.3H289.5v7.56h12.92V832.71z"></path>
	<path d="M343.53,814.46c0,1.31-0.25,2.53-0.74,3.66c-0.49,1.13-1.17,2.12-2.02,2.96c-0.85,0.84-1.85,1.49-3,1.96   c-1.15,0.47-2.37,0.7-3.65,0.7h-4.55v8.97h-5.33v-27.46h9.88c1.28,0,2.5,0.24,3.65,0.7c1.15,0.47,2.15,1.12,3,1.94   s1.52,1.8,2.01,2.92C343.28,811.94,343.53,813.16,343.53,814.46z M338.2,814.39c0-0.71-0.13-1.37-0.4-1.99s-0.62-1.16-1.08-1.62   s-1-0.82-1.62-1.1c-0.62-0.28-1.28-0.41-1.99-0.41h-3.54v10.38h3.54c0.71,0,1.37-0.14,1.99-0.43c0.62-0.29,1.16-0.67,1.62-1.15   s0.82-1.04,1.08-1.67S338.2,815.1,338.2,814.39z"></path>
	<path d="M374.46,805.22v14.92c0,1.83-0.27,3.54-0.82,5.12c-0.55,1.58-1.35,2.96-2.39,4.14c-1.04,1.18-2.31,2.11-3.81,2.78   c-1.5,0.68-3.21,1.01-5.14,1.01c-1.88,0-3.57-0.33-5.09-1c-1.51-0.66-2.8-1.58-3.87-2.73c-1.07-1.16-1.88-2.52-2.46-4.09   c-0.57-1.57-0.86-3.26-0.86-5.07v-15.09h5.33v15.12c0,1.05,0.15,2.04,0.45,2.97c0.3,0.93,0.73,1.74,1.31,2.42   c0.57,0.69,1.29,1.23,2.15,1.63c0.86,0.4,1.84,0.6,2.94,0.6c1.17,0,2.18-0.19,3.04-0.57c0.86-0.38,1.57-0.91,2.13-1.58   c0.56-0.68,0.99-1.47,1.27-2.39c0.29-0.92,0.43-1.92,0.43-3.02v-15.19H374.46z"></path>
	<path d="M401.96,824.84c0,1.15-0.23,2.21-0.7,3.18c-0.47,0.97-1.09,1.81-1.87,2.51c-0.78,0.7-1.68,1.24-2.7,1.63   c-1.02,0.39-2.09,0.58-3.21,0.58l-11.1-0.03v-27.5h9.9c1.19,0,2.3,0.18,3.32,0.53c1.02,0.36,1.91,0.87,2.66,1.55   c0.76,0.68,1.35,1.5,1.77,2.47c0.42,0.97,0.64,2.07,0.64,3.28c0,1.03-0.23,2.03-0.69,2.99c-0.46,0.96-1.07,1.78-1.82,2.44   c0.6,0.3,1.13,0.68,1.6,1.13c0.47,0.46,0.87,0.97,1.2,1.53s0.58,1.16,0.76,1.79C401.87,823.57,401.96,824.2,401.96,824.84z    M395.39,813.16c0-0.66-0.13-1.24-0.38-1.72c-0.25-0.48-0.59-0.88-1.01-1.2c-0.42-0.32-0.91-0.56-1.46-0.72   c-0.55-0.16-1.12-0.24-1.72-0.24h-3.13v7.56c0.57,0.02,1.09,0.03,1.55,0.03c0.46,0,0.99,0,1.58,0c0.6,0,1.17-0.07,1.72-0.21   c0.55-0.14,1.04-0.35,1.46-0.65c0.42-0.3,0.76-0.68,1.01-1.15C395.27,814.39,395.39,813.82,395.39,813.16z M396.42,824.53   c0-0.57-0.11-1.1-0.33-1.58c-0.22-0.48-0.52-0.89-0.89-1.22s-0.81-0.59-1.31-0.77c-0.49-0.18-1.03-0.28-1.6-0.28   c-0.78-0.02-1.55-0.03-2.3-0.02c-0.76,0.01-1.52,0.02-2.3,0.02v7.6h3.99c0.57,0,1.15-0.07,1.72-0.21c0.57-0.14,1.08-0.36,1.53-0.67   c0.45-0.31,0.81-0.7,1.08-1.17C396.29,825.77,396.42,825.2,396.42,824.53z"></path>
	<path d="M427.77,832.71h-18.59v-27.46h5.43v22.31h13.16V832.71z"></path>
	<path d="M439.63,832.71h-5.33v-27.46h5.33V832.71z"></path>
	<path d="M476.16,818.96c0,1.63-0.26,3.17-0.77,4.62c-0.52,1.46-1.25,2.79-2.22,4l2.75,2.71l-3.16,3.16l-2.82-2.85   c-1.17,0.8-2.45,1.43-3.85,1.89s-2.88,0.69-4.43,0.69c-1.99,0-3.87-0.37-5.62-1.12c-1.75-0.74-3.29-1.76-4.61-3.06   c-1.32-1.29-2.35-2.8-3.11-4.52c-0.76-1.72-1.13-3.56-1.13-5.53c0-1.97,0.38-3.82,1.13-5.55c0.76-1.73,1.79-3.24,3.11-4.54   c1.32-1.29,2.85-2.31,4.61-3.06c1.75-0.74,3.63-1.12,5.62-1.12s3.87,0.37,5.64,1.12c1.76,0.74,3.3,1.76,4.62,3.06   c1.32,1.29,2.35,2.81,3.11,4.54C475.79,815.14,476.16,816.99,476.16,818.96z M470.97,818.96c0-1.26-0.25-2.45-0.74-3.57   c-0.49-1.12-1.16-2.11-1.99-2.96s-1.82-1.52-2.96-2.01c-1.13-0.49-2.34-0.74-3.63-0.74c-1.28,0-2.49,0.25-3.61,0.74   c-1.12,0.49-2.11,1.16-2.96,2.01c-0.85,0.85-1.51,1.83-1.99,2.96c-0.48,1.12-0.72,2.31-0.72,3.57c0,1.26,0.24,2.45,0.72,3.57   c0.48,1.12,1.15,2.1,1.99,2.94c0.85,0.84,1.83,1.5,2.96,1.99c1.12,0.49,2.33,0.74,3.61,0.74c0.87,0,1.7-0.11,2.49-0.34   c0.79-0.23,1.54-0.55,2.25-0.96l-2.58-2.51l3.16-3.16l2.54,2.61C470.49,822.36,470.97,820.73,470.97,818.96z"></path>
	<path d="M507.82,805.22v14.92c0,1.83-0.27,3.54-0.82,5.12c-0.55,1.58-1.35,2.96-2.39,4.14c-1.04,1.18-2.31,2.11-3.81,2.78   c-1.5,0.68-3.21,1.01-5.14,1.01c-1.88,0-3.57-0.33-5.09-1c-1.51-0.66-2.8-1.58-3.87-2.73c-1.07-1.16-1.88-2.52-2.46-4.09   c-0.57-1.57-0.86-3.26-0.86-5.07v-15.09h5.33v15.12c0,1.05,0.15,2.04,0.45,2.97c0.3,0.93,0.73,1.74,1.31,2.42   c0.57,0.69,1.29,1.23,2.15,1.63c0.86,0.4,1.84,0.6,2.94,0.6c1.17,0,2.18-0.19,3.04-0.57c0.86-0.38,1.57-0.91,2.13-1.58   c0.56-0.68,0.99-1.47,1.27-2.39c0.29-0.92,0.43-1.92,0.43-3.02v-15.19H507.82z"></path>
	<path d="M533.87,832.71h-18.15v-27.46h18.15v4.4h-12.92v6.56h12.75v4.3h-12.75v7.56h12.92V832.71z"></path>
	<path d="M580.14,818.96c0,1.9-0.32,3.68-0.96,5.34c-0.64,1.66-1.54,3.12-2.68,4.37c-1.15,1.25-2.51,2.23-4.11,2.96   c-1.59,0.72-3.33,1.08-5.21,1.08H555.7v-27.5h11.48c1.88,0,3.61,0.37,5.21,1.1c1.59,0.73,2.96,1.72,4.11,2.96   c1.15,1.24,2.04,2.69,2.68,4.37C579.82,815.31,580.14,817.09,580.14,818.96z M574.74,818.83c0.02-1.28-0.17-2.5-0.58-3.64   c-0.41-1.15-1.01-2.15-1.79-3.01c-0.78-0.86-1.74-1.54-2.87-2.03c-1.13-0.49-2.41-0.74-3.83-0.74h-4.64v18.77h4.64   c1.4,0,2.65-0.23,3.76-0.7c1.11-0.47,2.06-1.12,2.84-1.96c0.78-0.84,1.38-1.82,1.8-2.96C574.49,821.42,574.72,820.18,574.74,818.83   z"></path>
	<path d="M590.93,809.31c0,0.55-0.08,1.07-0.24,1.56c-0.16,0.49-0.4,0.93-0.7,1.31c-0.31,0.38-0.7,0.68-1.17,0.89   c-0.47,0.22-1.01,0.33-1.63,0.33c-0.23,0-0.45-0.02-0.67-0.07c-0.22-0.05-0.42-0.09-0.6-0.14v-0.38c0.66-0.11,1.2-0.42,1.62-0.93   c0.41-0.5,0.62-1.09,0.62-1.75c0-0.11-0.01-0.25-0.03-0.41s-0.06-0.3-0.1-0.41h-2.2v-5.12h5.12V809.31z"></path>
	<path d="M603.13,832.71h-5.33v-27.46h5.33V832.71z"></path>
	<path d="M634.58,832.71h-5.22l-12.41-19.28v19.28h-5.22v-27.5h5.98l11.65,17.94v-17.94h5.22V832.71z"></path>
	<path d="M668.47,827.66c-0.78,0.96-1.63,1.79-2.54,2.49c-0.92,0.7-1.87,1.28-2.87,1.74s-2.02,0.8-3.06,1.01   c-1.04,0.22-2.08,0.33-3.11,0.33c-2.04,0-3.95-0.37-5.74-1.1c-1.79-0.73-3.35-1.74-4.67-3.02c-1.33-1.28-2.38-2.8-3.16-4.54   c-0.78-1.74-1.17-3.62-1.17-5.64c0-1.97,0.38-3.82,1.15-5.55c0.77-1.73,1.82-3.24,3.16-4.52c1.34-1.28,2.9-2.3,4.69-3.04   c1.79-0.74,3.7-1.12,5.74-1.12c2.36,0,4.51,0.48,6.44,1.44c1.94,0.96,3.58,2.25,4.93,3.85l-3.6,3.68c-1.03-1.4-2.18-2.4-3.47-3.01   c-1.28-0.61-2.71-0.91-4.29-0.91c-1.3,0-2.53,0.24-3.67,0.72c-1.14,0.48-2.14,1.14-3,1.98c-0.86,0.84-1.53,1.81-2.02,2.92   c-0.49,1.11-0.74,2.3-0.74,3.56c0,1.28,0.25,2.48,0.74,3.59c0.49,1.11,1.17,2.09,2.02,2.94c0.86,0.85,1.86,1.51,3,1.99   c1.14,0.48,2.37,0.72,3.67,0.72c1.23,0,2.4-0.23,3.5-0.69c1.1-0.46,2.08-1.07,2.95-1.82v-2.65h-5.64v-4.54h10.76V827.66z"></path>
	<path d="M694.18,832.71h-18.15v-27.46h18.15v4.4h-12.92v6.56h12.75v4.3h-12.75v7.56h12.92V832.71z M691.05,796.14l-4.95,6.63h-3.64   l3.09-6.63H691.05z"></path>
	<path d="M724.6,832.71h-5.22l-12.41-19.28v19.28h-5.22v-27.5h5.98l11.65,17.94v-17.94h5.22V832.71z"></path>
	<path d="M738.52,832.71h-5.33v-27.46h5.33V832.71z"></path>
	<path d="M765.26,832.71h-18.15v-27.46h18.15v4.4h-12.92v6.56h12.75v4.3h-12.75v7.56h12.92V832.71z"></path>
	<path d="M796.91,805.22v14.92c0,1.83-0.28,3.54-0.82,5.12c-0.55,1.58-1.35,2.96-2.39,4.14c-1.04,1.18-2.31,2.11-3.81,2.78   c-1.5,0.68-3.21,1.01-5.14,1.01c-1.88,0-3.57-0.33-5.09-1c-1.51-0.66-2.8-1.58-3.87-2.73c-1.07-1.16-1.88-2.52-2.46-4.09   c-0.57-1.57-0.86-3.26-0.86-5.07v-15.09h5.33v15.12c0,1.05,0.15,2.04,0.45,2.97c0.3,0.93,0.73,1.74,1.31,2.42   c0.57,0.69,1.29,1.23,2.15,1.63c0.86,0.4,1.84,0.6,2.94,0.6c1.17,0,2.18-0.19,3.04-0.57c0.86-0.38,1.57-0.91,2.13-1.58   c0.56-0.68,0.99-1.47,1.27-2.39c0.29-0.92,0.43-1.92,0.43-3.02v-15.19H796.91z"></path>
	<path d="M825.48,832.71h-5.87l-1.95-6.26c-0.21-0.69-0.46-1.32-0.77-1.89c-0.31-0.57-0.68-1.07-1.11-1.48   c-0.43-0.41-0.95-0.73-1.56-0.96c-0.61-0.23-1.32-0.34-2.14-0.34h-1.99v10.93h-5.26v-27.46l10.84-0.03c1.17,0,2.25,0.2,3.26,0.6   c1.01,0.4,1.87,0.96,2.61,1.67c0.73,0.71,1.3,1.55,1.72,2.51c0.41,0.96,0.62,2,0.62,3.13c0,0.8-0.13,1.58-0.38,2.34   c-0.25,0.76-0.6,1.45-1.06,2.1c-0.45,0.64-1,1.21-1.62,1.7s-1.31,0.86-2.06,1.12c0.86,0.32,1.57,0.78,2.12,1.39   c0.55,0.61,0.98,1.33,1.3,2.18c0.16,0.39,0.31,0.78,0.44,1.17c0.14,0.39,0.28,0.8,0.43,1.22c0.15,0.42,0.31,0.88,0.48,1.37   c0.17,0.49,0.36,1.04,0.56,1.63c0.25,0.76,0.49,1.4,0.7,1.94C824.99,831.83,825.22,832.3,825.48,832.71z M818.53,813.5   c0-0.64-0.12-1.23-0.36-1.75c-0.24-0.53-0.57-0.99-0.98-1.37c-0.41-0.39-0.9-0.69-1.46-0.91c-0.56-0.22-1.16-0.33-1.8-0.33h-3.85   v8.56h3.85c0.64,0,1.24-0.1,1.8-0.29s1.05-0.48,1.46-0.84c0.41-0.37,0.74-0.81,0.98-1.32C818.41,814.72,818.53,814.14,818.53,813.5   z"></path>
	<path d="M850.57,825.5c0,1.03-0.22,2.01-0.67,2.94c-0.45,0.93-1.07,1.75-1.87,2.46c-0.8,0.71-1.75,1.28-2.85,1.7   c-1.1,0.42-2.31,0.64-3.64,0.64c-1.19,0-2.26-0.07-3.21-0.21c-0.95-0.14-1.84-0.36-2.68-0.65c-0.84-0.3-1.64-0.68-2.41-1.15   c-0.77-0.47-1.56-1.04-2.39-1.7l3.78-3.81c1.1,0.92,2.18,1.56,3.23,1.94c1.05,0.38,2.2,0.57,3.44,0.57c0.5,0,0.98-0.07,1.43-0.22   c0.45-0.15,0.84-0.35,1.17-0.6c0.33-0.25,0.6-0.55,0.79-0.89c0.19-0.34,0.29-0.72,0.29-1.13c0-0.43-0.08-0.82-0.24-1.17   c-0.16-0.34-0.45-0.68-0.86-1c-0.41-0.32-0.99-0.65-1.72-0.98c-0.73-0.33-1.67-0.7-2.82-1.12c-1.01-0.37-1.98-0.78-2.9-1.25   c-0.93-0.47-1.74-1.04-2.44-1.7c-0.7-0.66-1.26-1.44-1.68-2.34c-0.42-0.89-0.64-1.95-0.64-3.16c0-1.17,0.23-2.25,0.7-3.23   c0.47-0.99,1.11-1.83,1.92-2.53c0.81-0.7,1.76-1.24,2.85-1.63c1.09-0.39,2.26-0.58,3.52-0.58c2.11,0,3.88,0.28,5.33,0.82   c1.44,0.55,2.73,1.35,3.85,2.41l-3.71,3.75c-0.69-0.66-1.46-1.17-2.3-1.53c-0.85-0.35-1.84-0.53-2.99-0.53   c-0.53,0-1.01,0.08-1.46,0.24c-0.45,0.16-0.83,0.37-1.15,0.64c-0.32,0.26-0.58,0.57-0.77,0.93s-0.29,0.73-0.29,1.12   c0,0.44,0.09,0.83,0.28,1.19c0.18,0.35,0.49,0.7,0.93,1.03c0.44,0.33,1.01,0.66,1.74,1c0.72,0.33,1.62,0.69,2.7,1.08   c1.37,0.48,2.55,1.01,3.54,1.58c0.99,0.57,1.79,1.2,2.41,1.89c0.62,0.69,1.08,1.46,1.37,2.32   C850.42,823.45,850.57,824.42,850.57,825.5z"></path>
	<path d="M283.6,878c-1.37,1.67-3.04,3-5,3.99c-1.96,0.98-4.12,1.48-6.48,1.48c-2.04,0-3.95-0.37-5.74-1.12   c-1.79-0.74-3.34-1.76-4.66-3.04c-1.32-1.28-2.37-2.79-3.13-4.52c-0.76-1.73-1.14-3.59-1.14-5.59c0-1.99,0.38-3.85,1.14-5.58   c0.76-1.73,1.81-3.24,3.13-4.54c1.32-1.29,2.88-2.31,4.66-3.04c1.79-0.73,3.7-1.1,5.74-1.1c2.36,0,4.52,0.49,6.48,1.48   c1.96,0.99,3.59,2.27,4.9,3.85l-3.68,3.78c-0.85-1.21-1.94-2.19-3.28-2.94c-1.34-0.74-2.81-1.12-4.42-1.12   c-1.28,0-2.49,0.25-3.63,0.74c-1.13,0.49-2.13,1.16-2.97,1.99c-0.85,0.84-1.52,1.81-2.01,2.92c-0.49,1.11-0.74,2.3-0.74,3.56   c0,1.24,0.25,2.41,0.74,3.52c0.49,1.11,1.16,2.09,2.01,2.92c0.85,0.84,1.84,1.5,2.97,1.99c1.13,0.49,2.34,0.74,3.63,0.74   c1.7,0,3.2-0.38,4.5-1.15c1.31-0.77,2.39-1.78,3.26-3.04L283.6,878z"></path>
	<path d="M307.97,882.95h-18.15v-27.46h18.15v4.4h-12.92v6.56h12.75v4.3h-12.75v7.56h12.92V882.95z"></path>
	<path d="M338.39,882.95h-5.22l-12.41-19.28v19.28h-5.22v-27.5h5.98l11.65,17.94v-17.94h5.22V882.95z"></path>
	<path d="M365.85,860.23h-7.6v22.72h-5.4v-22.72h-7.6v-4.74h20.59V860.23z"></path>
	<path d="M393.38,882.95h-5.87l-1.95-6.26c-0.21-0.69-0.46-1.32-0.77-1.89c-0.31-0.57-0.68-1.07-1.11-1.48   c-0.43-0.41-0.95-0.73-1.56-0.96c-0.61-0.23-1.32-0.34-2.14-0.34h-1.99v10.93h-5.26v-27.46l10.84-0.03c1.17,0,2.25,0.2,3.26,0.6   c1.01,0.4,1.87,0.96,2.61,1.67c0.73,0.71,1.3,1.55,1.72,2.51c0.41,0.96,0.62,2,0.62,3.13c0,0.8-0.13,1.58-0.38,2.34   c-0.25,0.76-0.6,1.45-1.06,2.1c-0.45,0.64-1,1.21-1.62,1.7c-0.63,0.49-1.31,0.86-2.06,1.12c0.86,0.32,1.57,0.78,2.12,1.39   c0.55,0.61,0.98,1.33,1.3,2.18c0.16,0.39,0.31,0.78,0.44,1.17c0.14,0.39,0.28,0.8,0.43,1.22c0.15,0.42,0.31,0.88,0.48,1.37   c0.17,0.49,0.36,1.04,0.56,1.63c0.25,0.76,0.49,1.4,0.7,1.94C392.89,882.06,393.13,882.54,393.38,882.95z M386.44,863.73   c0-0.64-0.12-1.23-0.36-1.75c-0.24-0.53-0.57-0.99-0.98-1.37c-0.41-0.39-0.9-0.69-1.46-0.91s-1.16-0.33-1.8-0.33h-3.85v8.56h3.85   c0.64,0,1.24-0.1,1.8-0.29s1.05-0.48,1.46-0.84c0.41-0.37,0.74-0.81,0.98-1.32C386.32,864.95,386.44,864.38,386.44,863.73z"></path>
	<path d="M418.26,882.95h-18.15v-27.46h18.15v4.4h-12.92v6.56h12.75v4.3h-12.75v7.56h12.92V882.95z"></path>
	<path d="M464.53,869.2c0,1.9-0.32,3.68-0.96,5.34c-0.64,1.66-1.54,3.12-2.68,4.37c-1.15,1.25-2.51,2.23-4.11,2.96   c-1.59,0.72-3.33,1.08-5.21,1.08h-11.48v-27.5h11.48c1.88,0,3.61,0.37,5.21,1.1c1.59,0.73,2.96,1.72,4.11,2.96   c1.15,1.24,2.04,2.69,2.68,4.37C464.21,865.55,464.53,867.32,464.53,869.2z M459.13,869.06c0.02-1.28-0.17-2.5-0.58-3.64   c-0.41-1.15-1.01-2.15-1.79-3.01c-0.78-0.86-1.74-1.53-2.87-2.03c-1.13-0.49-2.41-0.74-3.83-0.74h-4.64v18.77h4.64   c1.4,0,2.65-0.23,3.76-0.7c1.11-0.47,2.06-1.12,2.84-1.96c0.78-0.84,1.38-1.82,1.8-2.96C458.89,871.66,459.11,870.41,459.13,869.06   z"></path>
	<path d="M490.24,882.95h-18.15v-27.46h18.15v4.4h-12.92v6.56h12.75v4.3h-12.75v7.56h12.92V882.95z"></path>
	<path d="M532.72,882.95h-5.87l-1.95-6.26c-0.21-0.69-0.46-1.32-0.77-1.89c-0.31-0.57-0.68-1.07-1.11-1.48   c-0.43-0.41-0.95-0.73-1.56-0.96c-0.61-0.23-1.32-0.34-2.14-0.34h-1.99v10.93h-5.26v-27.46l10.84-0.03c1.17,0,2.25,0.2,3.26,0.6   c1.01,0.4,1.87,0.96,2.61,1.67c0.73,0.71,1.3,1.55,1.72,2.51c0.41,0.96,0.62,2,0.62,3.13c0,0.8-0.13,1.58-0.38,2.34   c-0.25,0.76-0.6,1.45-1.06,2.1c-0.45,0.64-1,1.21-1.62,1.7c-0.63,0.49-1.31,0.86-2.06,1.12c0.86,0.32,1.57,0.78,2.12,1.39   c0.55,0.61,0.98,1.33,1.3,2.18c0.16,0.39,0.31,0.78,0.44,1.17c0.14,0.39,0.28,0.8,0.43,1.22c0.15,0.42,0.31,0.88,0.48,1.37   c0.17,0.49,0.36,1.04,0.56,1.63c0.25,0.76,0.49,1.4,0.7,1.94C532.23,882.06,532.47,882.54,532.72,882.95z M525.78,863.73   c0-0.64-0.12-1.23-0.36-1.75c-0.24-0.53-0.57-0.99-0.98-1.37c-0.41-0.39-0.9-0.69-1.46-0.91s-1.16-0.33-1.8-0.33h-3.85v8.56h3.85   c0.64,0,1.24-0.1,1.8-0.29s1.05-0.48,1.46-0.84c0.41-0.37,0.74-0.81,0.98-1.32C525.66,864.95,525.78,864.38,525.78,863.73z"></path>
	<path d="M557.6,882.95h-18.15v-27.46h18.15v4.4h-12.92v6.56h12.75v4.3h-12.75v7.56h12.92V882.95z"></path>
	<path d="M590.29,878c-1.37,1.67-3.04,3-5,3.99c-1.96,0.98-4.12,1.48-6.48,1.48c-2.04,0-3.95-0.37-5.74-1.12   c-1.79-0.74-3.34-1.76-4.66-3.04c-1.32-1.28-2.37-2.79-3.13-4.52c-0.76-1.73-1.14-3.59-1.14-5.59c0-1.99,0.38-3.85,1.14-5.58   c0.76-1.73,1.81-3.24,3.13-4.54c1.32-1.29,2.88-2.31,4.66-3.04c1.79-0.73,3.7-1.1,5.74-1.1c2.36,0,4.52,0.49,6.48,1.48   c1.96,0.99,3.59,2.27,4.9,3.85l-3.68,3.78c-0.85-1.21-1.94-2.19-3.28-2.94c-1.34-0.74-2.81-1.12-4.42-1.12   c-1.28,0-2.49,0.25-3.63,0.74c-1.13,0.49-2.13,1.16-2.97,1.99c-0.85,0.84-1.52,1.81-2.01,2.92c-0.49,1.11-0.74,2.3-0.74,3.56   c0,1.24,0.25,2.41,0.74,3.52c0.49,1.11,1.16,2.09,2.01,2.92c0.85,0.84,1.84,1.5,2.97,1.99c1.13,0.49,2.34,0.74,3.63,0.74   c1.7,0,3.2-0.38,4.5-1.15c1.31-0.77,2.39-1.78,3.27-3.04L590.29,878z"></path>
	<path d="M617.99,882.95h-5.33v-12.17h-10.83v12.17h-5.33v-27.46h5.33v10.9h10.83v-10.9h5.33V882.95z"></path>
	<path d="M644.73,882.95h-18.15v-27.46h18.15v4.4h-12.92v6.56h12.75v4.3h-12.75v7.56h12.92V882.95z"></path>
	<path d="M672.95,882.95h-5.87l-1.95-6.26c-0.21-0.69-0.46-1.32-0.77-1.89c-0.31-0.57-0.68-1.07-1.11-1.48   c-0.43-0.41-0.95-0.73-1.56-0.96c-0.61-0.23-1.32-0.34-2.14-0.34h-1.99v10.93h-5.26v-27.46l10.84-0.03c1.17,0,2.25,0.2,3.26,0.6   c1.01,0.4,1.87,0.96,2.61,1.67c0.73,0.71,1.3,1.55,1.72,2.51c0.41,0.96,0.62,2,0.62,3.13c0,0.8-0.13,1.58-0.38,2.34   c-0.25,0.76-0.6,1.45-1.06,2.1c-0.45,0.64-1,1.21-1.62,1.7c-0.63,0.49-1.31,0.86-2.06,1.12c0.86,0.32,1.57,0.78,2.12,1.39   c0.55,0.61,0.98,1.33,1.3,2.18c0.16,0.39,0.31,0.78,0.44,1.17c0.14,0.39,0.28,0.8,0.43,1.22c0.15,0.42,0.31,0.88,0.48,1.37   c0.17,0.49,0.36,1.04,0.56,1.63c0.25,0.76,0.49,1.4,0.7,1.94C672.47,882.06,672.7,882.54,672.95,882.95z M666.01,863.73   c0-0.64-0.12-1.23-0.36-1.75c-0.24-0.53-0.57-0.99-0.98-1.37c-0.41-0.39-0.9-0.69-1.46-0.91s-1.16-0.33-1.8-0.33h-3.85v8.56h3.85   c0.64,0,1.24-0.1,1.8-0.29s1.05-0.48,1.46-0.84c0.41-0.37,0.74-0.81,0.98-1.32C665.89,864.95,666.01,864.38,666.01,863.73z"></path>
	<path d="M704.82,878c-1.37,1.67-3.04,3-5,3.99c-1.96,0.98-4.12,1.48-6.48,1.48c-2.04,0-3.95-0.37-5.74-1.12   c-1.79-0.74-3.34-1.76-4.66-3.04c-1.32-1.28-2.37-2.79-3.13-4.52c-0.76-1.73-1.14-3.59-1.14-5.59c0-1.99,0.38-3.85,1.14-5.58   c0.76-1.73,1.81-3.24,3.13-4.54c1.32-1.29,2.88-2.31,4.66-3.04c1.79-0.73,3.7-1.1,5.74-1.1c2.36,0,4.52,0.49,6.48,1.48   c1.96,0.99,3.59,2.27,4.9,3.85l-3.68,3.78c-0.85-1.21-1.94-2.19-3.28-2.94c-1.34-0.74-2.81-1.12-4.42-1.12   c-1.28,0-2.49,0.25-3.63,0.74c-1.13,0.49-2.13,1.16-2.97,1.99c-0.85,0.84-1.52,1.81-2.01,2.92c-0.49,1.11-0.74,2.3-0.74,3.56   c0,1.24,0.25,2.41,0.74,3.52c0.49,1.11,1.16,2.09,2.01,2.92c0.85,0.84,1.84,1.5,2.97,1.99c1.13,0.49,2.34,0.74,3.63,0.74   c1.7,0,3.2-0.38,4.5-1.15c1.31-0.77,2.39-1.78,3.26-3.04L704.82,878z"></path>
	<path d="M732.52,882.95h-5.33v-12.17h-10.83v12.17h-5.33v-27.46h5.33v10.9h10.83v-10.9h5.33V882.95z"></path>
	<path d="M759.26,882.95h-18.15v-27.46h18.15v4.4h-12.92v6.56h12.75v4.3h-12.75v7.56h12.92V882.95z"></path>
</g>
</svg>
